<svg xmlns="http://www.w3.org/2000/svg" width="36" height="36" fill="none"><path fill="#009B3A" d="M36 27a4 4 0 0 1-4 4H4a4 4 0 0 1-4-4V9a4 4 0 0 1 4-4h28a4 4 0 0 1 4 4v18Z"/><path fill="#FEDF01" d="M32.728 18 18 29.124 3.272 18 18 6.875 32.728 18Z"/><path fill="#002776" d="M17.976 24.382a6.458 6.458 0 1 0 0-12.916 6.458 6.458 0 0 0 0 12.916Z"/><path fill="#CBE9D4" d="M12.277 14.887a6.406 6.406 0 0 0-.672 2.023c3.995-.29 9.417 1.89 11.744 4.595.402-.604.7-1.28.883-2.004-2.872-2.808-7.917-4.63-11.955-4.614Z"/><path fill="#88C9F9" d="M12 18.233h1v1h-1v-1Zm1 2h1v1h-1v-1Z"/><path fill="#55ACEE" d="M15 18.233h1v1h-1v-1Zm2 1h1v1h-1v-1Zm4 2h1v1h-1v-1Zm-3 1h1v1h-1v-1Zm3-6h1v1h-1v-1Z"/><path fill="#3B88C3" d="M19 20.233h1v1h-1v-1Z"/></svg>