<svg width="80" height="80" viewBox="0 0 80 80" fill="none" xmlns="http://www.w3.org/2000/svg">
<g clip-path="url(#clip0_164102_3195)">
<mask id="mask0_164102_3195" style="mask-type:luminance" maskUnits="userSpaceOnUse" x="0" y="0" width="80" height="80">
<path d="M0 0H80V80H0V0Z" fill="white"/>
</mask>
<g mask="url(#mask0_164102_3195)">
<path d="M78.0967 2.92423e-06H1.9C1.39579 0.000885969 0.912521 0.201805 0.556297 0.558654C0.200074 0.915502 2.15614e-06 1.39912 2.92939e-06 1.90334V78.1C-0.000436181 78.3501 0.0484953 78.5978 0.143991 78.8289C0.239487 79.06 0.379669 79.27 0.556497 79.4468C0.733325 79.6237 0.943322 79.7638 1.17444 79.8593C1.40556 79.9548 1.65326 80.0038 1.90334 80.0033H78.1C78.3499 80.0033 78.5974 79.9541 78.8284 79.8584C79.0593 79.7628 79.2691 79.6226 79.4459 79.4459C79.6226 79.2691 79.7628 79.0593 79.8584 78.8284C79.9541 78.5974 80.0033 78.3499 80.0033 78.1V1.9C80.0029 1.65005 79.9532 1.40264 79.8572 1.17188C79.7611 0.941126 79.6205 0.73155 79.4435 0.555118C79.2664 0.378687 79.0564 0.238856 78.8253 0.143609C78.5942 0.0483622 78.3466 -0.000435199 78.0967 2.92423e-06ZM47.62 42.7533H38.0967V72.38H30.4767V42.7533H20.9533V36.19H47.62V42.7533ZM49.7533 70.6867V62.77C49.7533 62.77 54.08 66.03 59.27 66.03C64.46 66.03 64.26 62.6367 64.26 62.17C64.26 57.2467 49.5533 57.2467 49.5533 46.3333C49.5533 31.4933 70.9833 37.35 70.9833 37.35L70.7167 44.4033C70.7167 44.4033 67.1233 42.0067 63.0633 42.0067C59.0033 42.0067 57.54 43.94 57.54 46C57.54 51.3233 72.38 50.7933 72.38 61.5067C72.38 78.0067 49.7533 70.69 49.7533 70.69V70.6867Z" fill="#00DF5E"/>
</g>
</g>
<defs>
<clipPath id="clip0_164102_3195">
<rect width="80" height="80" fill="white"/>
</clipPath>
</defs>
</svg>
